<svg xmlns="http://www.w3.org/2000/svg" viewBox="0 0 33 33" width="100%" height="100%" shape-rendering="crispEdges">
  <rect width="33" height="33" rx="5" fill="#0b0e14"/>

  <rect x="1" y="30" width="31" height="1" fill="#00f0ff" opacity="0.8"/>

  <rect x="1" y="27" width="3" height="2" fill="#ff0055"/>
  <rect x="1" y="24" width="3" height="2" fill="#ff3300"/>

  <rect x="5" y="27" width="3" height="2" fill="#ff0055"/>
  <rect x="5" y="24" width="3" height="2" fill="#ff3300"/>
  <rect x="5" y="21" width="3" height="2" fill="#ff6600"/>
  <rect x="5" y="18" width="3" height="2" fill="#ff9900"/>

  <rect x="9" y="27" width="3" height="2" fill="#ff0055"/>
  <rect x="9" y="24" width="3" height="2" fill="#ff3300"/>
  <rect x="9" y="21" width="3" height="2" fill="#ff6600"/>
  <rect x="9" y="18" width="3" height="2" fill="#ff9900"/>
  <rect x="9" y="15" width="3" height="2" fill="#ffcc00"/>
  <rect x="9" y="12" width="3" height="2" fill="#ffff00"/>
  <rect x="9" y="9" width="3" height="2" fill="#ffffcc"/>

  <rect x="13" y="27" width="3" height="2" fill="#ff0055"/>
  <rect x="13" y="24" width="3" height="2" fill="#ff3300"/>
  <rect x="13" y="21" width="3" height="2" fill="#ff6600"/>
  <rect x="13" y="18" width="3" height="2" fill="#ff9900"/>
  <rect x="13" y="15" width="3" height="2" fill="#ffcc00"/>
  <rect x="13" y="12" width="3" height="2" fill="#ffff00"/>
  <rect x="13" y="9" width="3" height="2" fill="#ffffcc"/>
  <rect x="13" y="6" width="3" height="2" fill="#fffff0"/>
  <rect x="13" y="3" width="3" height="2" fill="#ffffff"/>

  <rect x="17" y="27" width="3" height="2" fill="#ff0055"/>
  <rect x="17" y="24" width="3" height="2" fill="#ff3300"/>
  <rect x="17" y="21" width="3" height="2" fill="#ff6600"/>
  <rect x="17" y="18" width="3" height="2" fill="#ff9900"/>
  <rect x="17" y="15" width="3" height="2" fill="#ffcc00"/>
  <rect x="17" y="12" width="3" height="2" fill="#ffff00"/>
  <rect x="17" y="9" width="3" height="2" fill="#ffffcc"/>
  <rect x="17" y="6" width="3" height="2" fill="#fffff0"/>
  <rect x="17" y="3" width="3" height="2" fill="#ffffff"/>

  <rect x="21" y="27" width="3" height="2" fill="#ff0055"/>
  <rect x="21" y="24" width="3" height="2" fill="#ff3300"/>
  <rect x="21" y="21" width="3" height="2" fill="#ff6600"/>
  <rect x="21" y="18" width="3" height="2" fill="#ff9900"/>
  <rect x="21" y="15" width="3" height="2" fill="#ffcc00"/>
  <rect x="21" y="12" width="3" height="2" fill="#ffff00"/>
  <rect x="21" y="9" width="3" height="2" fill="#ffffcc"/>

  <rect x="25" y="27" width="3" height="2" fill="#ff0055"/>
  <rect x="25" y="24" width="3" height="2" fill="#ff3300"/>
  <rect x="25" y="21" width="3" height="2" fill="#ff6600"/>
  <rect x="25" y="18" width="3" height="2" fill="#ff9900"/>

  <rect x="29" y="27" width="3" height="2" fill="#ff0055"/>
  <rect x="29" y="24" width="3" height="2" fill="#ff3300"/>
</svg>
